<svg viewBox="0 0 128 128" xmlns="http://www.w3.org/2000/svg" role="img" aria-label="KBT Korea Bike Trail">
  <defs><clipPath id="c"><circle cx="64" cy="64" r="55"/></clipPath></defs>
  <circle cx="64" cy="64" r="62" fill="#0C2446"/>
  <g clip-path="url(#c)">
    <rect width="128" height="128" fill="#9CC6ED"/>
    <ellipse cx="86" cy="33" rx="15" ry="7" fill="#FFFFFF"/><ellipse cx="99" cy="37" rx="11" ry="6" fill="#FFFFFF"/>
    <path d="M2 82 Q 34 40 66 82 Z" fill="#5C6B41"/><path d="M44 82 Q 84 26 124 82 Z" fill="#728254"/>
    <rect x="0" y="72" width="128" height="24" fill="#5E8FBF"/>
    <path d="M30 92 C 52 84, 60 80, 84 76 C 100 73, 112 72, 126 70" fill="none" stroke="#FFFFFF" stroke-width="7" stroke-linecap="round"/>
    <rect x="0" y="88" width="128" height="40" fill="#0C2446"/>
  </g>
  <path d="M7.50 -0.00 L7.50 -68.70 L25.41 -68.70 L25.41 -38.20 L52.59 -68.70 L74.80 -68.70 L49.20 -40.59 L75.30 -0.00 L54.09 -0.00 L36.80 -28.41 L25.41 -17.91 L25.41 -0.00 L7.50 -0.00 Z M84.50 -0.00 L84.50 -68.70 L126.50 -68.70 Q131.80 -68.70 136.09 -66.59 Q140.41 -64.50 142.95 -60.70 Q145.50 -56.91 145.50 -51.80 Q145.50 -47.30 143.95 -44.09 Q142.41 -40.91 139.84 -38.91 Q137.30 -36.91 134.09 -35.91 L134.09 -35.50 Q137.80 -34.70 140.80 -32.64 Q143.80 -30.59 145.55 -27.09 Q147.30 -23.59 147.30 -18.59 Q147.30 -12.70 144.50 -8.55 Q141.70 -4.41 137.09 -2.20 Q132.50 -0.00 126.80 -0.00 L84.50 -0.00 Z M102.41 -13.80 L121.91 -13.80 Q125.09 -13.80 127.05 -15.69 Q129.00 -17.59 129.00 -21.50 Q129.00 -23.59 128.14 -25.25 Q127.30 -26.91 125.64 -27.80 Q124.00 -28.70 121.59 -28.70 L102.41 -28.70 L102.41 -13.80 Z M102.41 -41.41 L120.30 -41.41 Q122.50 -41.41 124.05 -42.30 Q125.59 -43.20 126.44 -44.80 Q127.30 -46.41 127.30 -48.59 Q127.30 -51.80 125.39 -53.59 Q123.50 -55.41 120.59 -55.41 L102.41 -55.41 L102.41 -41.41 Z M176.20 -0.00 L176.20 -54.00 L153.91 -54.00 L153.91 -68.70 L216.41 -68.70 L216.41 -54.00 L194.09 -54.00 L194.09 -0.00 L176.20 -0.00 Z" fill="#FFFFFF" transform="translate(24.63 115.00) scale(0.3639)"/>
  <line x1="45" y1="121" x2="56" y2="121" stroke="#FFFFFF" stroke-width="1.7" stroke-linecap="round"/><circle cx="61" cy="121" r="2.2" fill="#FFFFFF"/><circle cx="67" cy="121" r="2.2" fill="#FFFFFF"/><line x1="72" y1="121" x2="83" y2="121" stroke="#FFFFFF" stroke-width="1.7" stroke-linecap="round"/>
</svg>